<svg width="112" height="112" viewBox="0 0 112 112" fill="none" xmlns="http://www.w3.org/2000/svg">
<g filter="url(#filter0_d_1:11114)">
<circle cx="56" cy="46" r="36" fill="#E3B873"/>
</g>
<path d="M56.3396 53.2782C55.9614 53.2782 55.6526 53.5775 55.6526 53.9493V55.2739C55.6526 55.6457 55.9614 55.9449 56.3396 55.9449C56.7178 55.9449 57.0265 55.6457 57.0265 55.2739V53.9493C57.0265 53.5775 56.7178 53.2782 56.3396 53.2782Z" fill="white" stroke="white" stroke-width="0.1"/>
<path d="M73.0581 44.0004L73.0581 44.0004C72.6069 41.8425 71.5951 39.8085 70.1321 38.1178C68.7237 36.4902 66.9214 35.2089 64.9118 34.4013C64.5828 33.0653 63.8927 31.6877 62.5386 30.6503C61.2205 29.6405 59.8931 29.4459 59.8338 29.4375L59.8338 29.4375C59.6374 29.4102 59.4377 29.4672 59.2872 29.5945C59.1366 29.7218 59.0498 29.9068 59.0498 30.1018V33.4054H56.8254C56.236 31.4913 54.4142 30.0933 52.2634 30.0933C50.0652 30.0933 48.2096 31.5532 47.6632 33.5323C44.5152 33.9581 41.6197 35.4488 39.4692 37.7623L39.5017 37.7924L39.4692 37.7623C37.2 40.2038 35.95 43.3646 35.95 46.6624C35.95 54.0521 39.8839 60.0623 41.0891 61.7278C41.4705 62.2549 42.0945 62.5691 42.7582 62.5691H45.4692C46.5961 62.5691 47.515 61.675 47.515 60.5732V59.7716C48.1849 59.8693 48.8649 59.9194 49.5457 59.9194H55.6528V60.5732C55.6528 61.675 56.5717 62.5691 57.6986 62.5691H60.6765C61.634 62.5691 62.4756 61.9067 62.6767 60.9917L62.9969 59.5352C67.173 58.5336 70.5324 55.6771 72.1959 51.9705H74.6837C75.4359 51.9705 76.05 51.3736 76.05 50.6371V45.3377C76.05 44.981 75.9075 44.6458 75.6493 44.3941C75.3912 44.1425 75.0482 44.0041 74.6838 44.0041H74.6837H74.6837H74.6837H74.6836H74.6836H74.6836H74.6835L73.0592 44.0043C73.0587 44.003 73.0584 44.0017 73.0581 44.0004ZM74.6762 50.5869H74.6761V50.6284H72.7111C73.0469 49.5848 73.2538 48.4889 73.3138 47.3596C73.3337 46.9883 73.0411 46.6738 72.6633 46.6547C72.2857 46.636 71.9615 46.9187 71.9418 47.29C71.6746 52.3126 68.1861 56.6062 63.3218 58.0564L64.1936 54.0901C64.2736 53.7265 64.0358 53.3704 63.6656 53.2931C63.2961 53.2156 62.9301 53.4453 62.8503 53.8084L61.3334 60.7099C61.2678 61.0085 60.9919 61.227 60.6765 61.227H57.6984C57.3268 61.227 57.0266 60.9325 57.0266 60.5732V57.9235C57.0266 57.5517 56.7178 57.2524 56.3396 57.2524C55.9614 57.2524 55.6527 57.5517 55.6527 57.9235V58.5773H49.5455C48.8637 58.5773 48.1831 58.5213 47.5148 58.4125V53.949C47.5148 53.5772 47.2061 53.278 46.8279 53.278C46.4497 53.278 46.1409 53.5772 46.1409 53.949V60.5732C46.1409 60.9325 45.8407 61.2271 45.4691 61.2271H42.7582C42.5355 61.2271 42.3366 61.127 42.2111 60.9533L42.2111 60.9533C41.0641 59.3681 37.3239 53.6542 37.3239 46.6624C37.3239 43.699 38.4469 40.8586 40.4864 38.6645C42.3401 36.67 44.8092 35.3559 47.5037 34.9137C47.5187 35.3017 47.5834 35.6852 47.695 36.055H47.5074C47.1292 36.055 46.8205 36.3542 46.8205 36.726C46.8205 37.0978 47.1292 37.3971 47.5074 37.3971H57.0191C57.3974 37.3971 57.7061 37.0978 57.7061 36.726C57.7061 36.3542 57.3974 36.055 57.0191 36.055H56.8315C56.9592 35.6325 57.0258 35.192 57.0266 34.7474H59.0498V36.0636C59.0498 36.4354 59.3585 36.7346 59.7367 36.7346C60.1149 36.7346 60.4237 36.4354 60.4237 36.0636V30.9896C61.0183 31.2188 61.843 31.6672 62.5288 32.5227C63.2404 33.4102 63.8056 34.7396 63.8056 36.7261C63.8056 37.0979 64.1144 37.3971 64.4926 37.3971C64.8708 37.3971 65.1795 37.0979 65.1795 36.7261C65.1795 36.4882 65.1716 36.2384 65.1536 35.9805C66.6527 36.7054 67.9978 37.7305 69.0829 38.9844C70.3977 40.5038 71.3068 42.3312 71.712 44.269C71.8426 44.8939 72.4049 45.3465 73.0487 45.3464L74.6762 45.3463V50.5869ZM52.2633 31.4354C54.1334 31.4354 55.6527 32.9186 55.6527 34.7389C55.6527 35.1938 55.5552 35.642 55.371 36.0552H49.1555C48.9714 35.6419 48.8737 35.1938 48.8737 34.7389C48.8737 32.9185 50.3931 31.4354 52.2633 31.4354Z" fill="white" stroke="white" stroke-width="0.1"/>
<path d="M63.9116 44.4405L63.9116 44.4405C64.315 43.3857 65.3808 42.6794 66.5621 42.6794C67.7433 42.6794 68.8093 43.3858 69.2125 44.4405L63.9116 44.4405ZM63.9116 44.4405C63.7784 44.7888 63.9605 45.1751 64.3155 45.3041M63.9116 44.4405L64.3155 45.3041M64.3155 45.3041C64.67 45.4331 65.0657 45.2577 65.1986 44.9101L64.3155 45.3041ZM65.1986 44.91C65.4011 44.3805 65.9479 44.0214 66.562 44.0214C67.1761 44.0214 67.723 44.3805 67.9255 44.9101C68.0289 45.1805 68.2913 45.3464 68.5691 45.3464C68.6488 45.3464 68.7297 45.3328 68.8086 45.3041C68.8086 45.3041 68.8086 45.3041 68.8086 45.3041L68.7915 45.2571L65.1986 44.91Z" fill="white" stroke="white" stroke-width="0.1"/>
<path d="M55.2116 47.0757C54.5601 46.6339 53.7201 46.3632 52.9502 46.1509V43.072C53.5451 43.1491 54.0484 43.3214 54.4047 43.5342C54.7758 43.7558 54.9733 44.0121 54.9733 44.2406C54.9733 44.6124 55.2821 44.9116 55.6603 44.9116C56.0385 44.9116 56.3472 44.6124 56.3472 44.2406C56.3472 43.585 55.9732 42.9989 55.3589 42.5557C54.754 42.1193 53.9127 41.8182 52.9502 41.7204V41.6944C52.9502 41.3226 52.6414 41.0234 52.2632 41.0234C51.885 41.0234 51.5763 41.3226 51.5763 41.6944V41.7204C50.6138 41.8182 49.7724 42.1193 49.1676 42.5557C48.5533 42.9989 48.1792 43.585 48.1792 44.2406C48.1792 45.1681 48.6508 45.799 49.3149 46.2494C49.9663 46.6912 50.8063 46.9619 51.5763 47.1742V50.2531C50.9814 50.176 50.4781 50.0037 50.1218 49.7909C49.7506 49.5693 49.5532 49.313 49.5532 49.0845C49.5532 48.7127 49.2444 48.4135 48.8662 48.4135C48.488 48.4135 48.1792 48.7127 48.1792 49.0845C48.1792 49.7401 48.5533 50.3262 49.1676 50.7694C49.7724 51.2058 50.6138 51.5069 51.5763 51.6047V51.6307C51.5763 52.0025 51.885 52.3017 52.2632 52.3017C52.6414 52.3017 52.9502 52.0025 52.9502 51.6307V51.6047C53.9127 51.5069 54.754 51.2058 55.3589 50.7694C55.9732 50.3262 56.3472 49.7401 56.3472 49.0845C56.3472 48.157 55.8757 47.5261 55.2116 47.0757ZM51.5763 43.072V45.7681C50.8286 45.5358 50.3248 45.3146 50.0067 45.0733C49.6827 44.8275 49.5532 44.5627 49.5532 44.2406C49.5532 44.0121 49.7506 43.7558 50.1218 43.5342C50.4781 43.3214 50.9814 43.1491 51.5763 43.072ZM54.4047 49.791C54.0484 50.0038 53.545 50.1761 52.9502 50.2532V47.557C53.6979 47.7893 54.2016 48.0105 54.5198 48.2519C54.8437 48.4976 54.9733 48.7625 54.9733 49.0846C54.9733 49.3131 54.7758 49.5694 54.4047 49.791Z" fill="white" stroke="white" stroke-width="0.1"/>
<defs>
<filter id="filter0_d_1:11114" x="0" y="0" width="112" height="112" filterUnits="userSpaceOnUse" color-interpolation-filters="sRGB">
<feFlood flood-opacity="0" result="BackgroundImageFix"/>
<feColorMatrix in="SourceAlpha" type="matrix" values="0 0 0 0 0 0 0 0 0 0 0 0 0 0 0 0 0 0 127 0" result="hardAlpha"/>
<feOffset dy="10"/>
<feGaussianBlur stdDeviation="10"/>
<feColorMatrix type="matrix" values="0 0 0 0 0.929412 0 0 0 0 0.752941 0 0 0 0 0.470588 0 0 0 0.2 0"/>
<feBlend mode="normal" in2="BackgroundImageFix" result="effect1_dropShadow_1:11114"/>
<feBlend mode="normal" in="SourceGraphic" in2="effect1_dropShadow_1:11114" result="shape"/>
</filter>
</defs>
</svg>
