<svg width="57" height="57" viewBox="0 0 57 57" fill="none" xmlns="http://www.w3.org/2000/svg">
<path d="M57 28.5C57 44.2401 44.2401 57 28.5 57C12.7599 57 0 44.2401 0 28.5C0 12.7599 12.7599 0 28.5 0C44.2401 0 57 12.7599 57 28.5Z" fill="white"/>
<circle cx="29" cy="28" r="21" fill="#E3B873"/>
<path d="M24.2654 35.27C23.2934 35.27 22.4114 35.012 21.6194 34.496C20.8274 33.98 20.1974 33.23 19.7294 32.246C19.2734 31.25 19.0454 30.068 19.0454 28.7C19.0454 27.332 19.2734 26.156 19.7294 25.172C20.1974 24.176 20.8274 23.42 21.6194 22.904C22.4114 22.388 23.2934 22.13 24.2654 22.13C25.2374 22.13 26.1194 22.388 26.9114 22.904C27.7034 23.42 28.3274 24.176 28.7834 25.172C29.2514 26.156 29.4854 27.332 29.4854 28.7C29.4854 30.068 29.2514 31.25 28.7834 32.246C28.3274 33.23 27.7034 33.98 26.9114 34.496C26.1194 35.012 25.2374 35.27 24.2654 35.27ZM24.2654 34.91C25.6454 34.91 26.3354 32.84 26.3354 28.7C26.3354 24.56 25.6454 22.49 24.2654 22.49C22.8854 22.49 22.1954 24.56 22.1954 28.7C22.1954 32.84 22.8854 34.91 24.2654 34.91ZM31.5539 35V34.73L32.8139 34.37V24.488L30.9239 25.82L30.5639 25.37L33.8399 22.4H35.7839V34.37L37.0439 34.73V35H31.5539Z" fill="white"/>
</svg>
