<svg width="57" height="57" viewBox="0 0 57 57" fill="none" xmlns="http://www.w3.org/2000/svg">
<path d="M57 28.5C57 44.2401 44.2401 57 28.5 57C12.7599 57 0 44.2401 0 28.5C0 12.7599 12.7599 0 28.5 0C44.2401 0 57 12.7599 57 28.5Z" fill="white"/>
<circle cx="29" cy="28" r="21" fill="#E3B873"/>
<path d="M23.1042 35.27C22.1322 35.27 21.2502 35.012 20.4582 34.496C19.6662 33.98 19.0362 33.23 18.5682 32.246C18.1122 31.25 17.8842 30.068 17.8842 28.7C17.8842 27.332 18.1122 26.156 18.5682 25.172C19.0362 24.176 19.6662 23.42 20.4582 22.904C21.2502 22.388 22.1322 22.13 23.1042 22.13C24.0762 22.13 24.9582 22.388 25.7502 22.904C26.5422 23.42 27.1662 24.176 27.6222 25.172C28.0902 26.156 28.3242 27.332 28.3242 28.7C28.3242 30.068 28.0902 31.25 27.6222 32.246C27.1662 33.23 26.5422 33.98 25.7502 34.496C24.9582 35.012 24.0762 35.27 23.1042 35.27ZM23.1042 34.91C24.4842 34.91 25.1742 32.84 25.1742 28.7C25.1742 24.56 24.4842 22.49 23.1042 22.49C21.7242 22.49 21.0342 24.56 21.0342 28.7C21.0342 32.84 21.7242 34.91 23.1042 34.91ZM33.3628 35V34.73L34.6228 34.37V31.67H29.4928L29.1328 31.13L35.8828 22.22H37.5928V30.86H39.4828V31.67H37.5928V34.37L38.8528 34.73V35H33.3628ZM30.1228 30.86H34.6228V24.92L30.1228 30.86Z" fill="white"/>
</svg>
