<svg width="57" height="57" viewBox="0 0 57 57" fill="none" xmlns="http://www.w3.org/2000/svg">
<path d="M57 28.5C57 44.2401 44.2401 57 28.5 57C12.7599 57 0 44.2401 0 28.5C0 12.7599 12.7599 0 28.5 0C44.2401 0 57 12.7599 57 28.5Z" fill="white"/>
<circle cx="29" cy="28" r="21" fill="#E3B873"/>
<path d="M23.2361 35.27C22.2641 35.27 21.3821 35.012 20.5901 34.496C19.7981 33.98 19.1681 33.23 18.7001 32.246C18.2441 31.25 18.0161 30.068 18.0161 28.7C18.0161 27.332 18.2441 26.156 18.7001 25.172C19.1681 24.176 19.7981 23.42 20.5901 22.904C21.3821 22.388 22.2641 22.13 23.2361 22.13C24.2081 22.13 25.0901 22.388 25.8821 22.904C26.6741 23.42 27.2981 24.176 27.7541 25.172C28.2221 26.156 28.4561 27.332 28.4561 28.7C28.4561 30.068 28.2221 31.25 27.7541 32.246C27.2981 33.23 26.6741 33.98 25.8821 34.496C25.0901 35.012 24.2081 35.27 23.2361 35.27ZM23.2361 34.91C24.6161 34.91 25.3061 32.84 25.3061 28.7C25.3061 24.56 24.6161 22.49 23.2361 22.49C21.8561 22.49 21.1661 24.56 21.1661 28.7C21.1661 32.84 21.8561 34.91 23.2361 34.91ZM33.5846 35.27C32.7566 35.27 32.0486 35.156 31.4606 34.928C30.8846 34.7 30.4466 34.406 30.1466 34.046C29.8586 33.686 29.7146 33.314 29.7146 32.93C29.7146 32.522 29.8346 32.198 30.0746 31.958C30.3266 31.706 30.6566 31.58 31.0646 31.58C31.1606 31.58 31.2566 31.592 31.3526 31.616C31.4486 31.628 31.5146 31.634 31.5506 31.634L31.7846 31.67V34.55C31.7966 34.55 31.9226 34.598 32.1626 34.694C32.4746 34.778 32.8286 34.82 33.2246 34.82C34.0646 34.82 34.7066 34.568 35.1506 34.064C35.6066 33.548 35.8346 32.78 35.8346 31.76C35.8346 30.716 35.6126 29.93 35.1686 29.402C34.7366 28.874 34.1486 28.61 33.4046 28.61H32.5046V28.16H33.4046C33.9446 28.16 34.3946 27.92 34.7546 27.44C35.1146 26.96 35.2946 26.27 35.2946 25.37C35.2946 24.47 35.1086 23.78 34.7366 23.3C34.3646 22.82 33.8906 22.58 33.3146 22.58C33.0026 22.58 32.7026 22.628 32.4146 22.724C32.3786 22.736 32.2586 22.778 32.0546 22.85V25.73L31.8206 25.784C31.6286 25.808 31.4666 25.82 31.3346 25.82C30.9266 25.82 30.5966 25.7 30.3446 25.46C30.1046 25.208 29.9846 24.878 29.9846 24.47C29.9846 24.098 30.1286 23.732 30.4166 23.372C30.7046 23.012 31.1246 22.718 31.6766 22.49C32.2406 22.25 32.9066 22.13 33.6746 22.13C34.6826 22.13 35.5346 22.28 36.2306 22.58C36.9386 22.868 37.4666 23.258 37.8146 23.75C38.1746 24.242 38.3546 24.782 38.3546 25.37C38.3546 26.054 38.1806 26.6 37.8326 27.008C37.4846 27.404 37.0286 27.722 36.4646 27.962C35.9126 28.178 35.2826 28.304 34.5746 28.34V28.43C35.3666 28.466 36.0866 28.604 36.7346 28.844C38.1746 29.42 38.8946 30.392 38.8946 31.76C38.8946 32.816 38.4566 33.668 37.5806 34.316C36.7166 34.952 35.3846 35.27 33.5846 35.27Z" fill="white"/>
</svg>
