<svg width="57" height="57" viewBox="0 0 57 57" fill="none" xmlns="http://www.w3.org/2000/svg">
<path d="M57 28.5C57 44.2401 44.2401 57 28.5 57C12.7599 57 0 44.2401 0 28.5C0 12.7599 12.7599 0 28.5 0C44.2401 0 57 12.7599 57 28.5Z" fill="white"/>
<circle cx="29" cy="28" r="21" fill="#E3B873"/>
<path d="M23.3239 35.27C22.3519 35.27 21.4699 35.012 20.6779 34.496C19.8859 33.98 19.2559 33.23 18.7879 32.246C18.3319 31.25 18.1039 30.068 18.1039 28.7C18.1039 27.332 18.3319 26.156 18.7879 25.172C19.2559 24.176 19.8859 23.42 20.6779 22.904C21.4699 22.388 22.3519 22.13 23.3239 22.13C24.2959 22.13 25.1779 22.388 25.9699 22.904C26.7619 23.42 27.3859 24.176 27.8419 25.172C28.3099 26.156 28.5439 27.332 28.5439 28.7C28.5439 30.068 28.3099 31.25 27.8419 32.246C27.3859 33.23 26.7619 33.98 25.9699 34.496C25.1779 35.012 24.2959 35.27 23.3239 35.27ZM23.3239 34.91C24.7039 34.91 25.3939 32.84 25.3939 28.7C25.3939 24.56 24.7039 22.49 23.3239 22.49C21.9439 22.49 21.2539 24.56 21.2539 28.7C21.2539 32.84 21.9439 34.91 23.3239 34.91ZM29.8925 34.19C29.8925 33.482 30.0305 32.84 30.3065 32.264C30.5945 31.676 30.9425 31.166 31.3505 30.734C31.7585 30.302 32.2925 29.792 32.9525 29.204C33.5645 28.664 34.0445 28.214 34.3925 27.854C34.7405 27.482 35.0345 27.068 35.2745 26.612C35.5145 26.144 35.6345 25.64 35.6345 25.1C35.6345 24.308 35.4425 23.69 35.0585 23.246C34.6745 22.802 34.1765 22.58 33.5645 22.58C33.2165 22.58 32.8625 22.628 32.5025 22.724L32.1245 22.85V25.73L31.8905 25.784C31.6985 25.808 31.5365 25.82 31.4045 25.82C30.9965 25.82 30.6665 25.7 30.4145 25.46C30.1745 25.208 30.0545 24.878 30.0545 24.47C30.0545 24.086 30.1985 23.714 30.4865 23.354C30.7865 22.994 31.2245 22.7 31.8005 22.472C32.3885 22.244 33.0965 22.13 33.9245 22.13C35.5445 22.13 36.7445 22.454 37.5245 23.102C38.3045 23.75 38.6945 24.656 38.6945 25.82C38.6945 26.552 38.5025 27.182 38.1185 27.71C37.7465 28.238 37.2845 28.676 36.7325 29.024C36.1925 29.372 35.4665 29.768 34.5545 30.212C33.7865 30.584 33.1625 30.914 32.6825 31.202C32.2145 31.478 31.7765 31.814 31.3685 32.21C30.9725 32.606 30.6905 33.056 30.5225 33.56H37.1825C37.2665 32.912 37.4705 32.372 37.7945 31.94C37.9265 31.736 38.0825 31.556 38.2625 31.4H38.8025V35H29.8925V34.19Z" fill="white"/>
</svg>
